Coordinates
version=1
nRows=54
nColumns=12
inDegrees=yes

Units are S.I. units (second, meters, Newtons, ...)
Angles are in degrees

endheader
time	SC_y	SC_z	SC_x	AC_y	AC_z	AC_x	GH_y	GH_z	GH_yy	EL_x	PS_y
       0.0              -50.68          1.264          2.726          69.19         0.7239          7.617         -38.79          3.192         -110.5          81.36          8.304
  0.001399              -50.67          1.269          2.738          69.19         0.7231          7.616         -38.78          3.205         -110.5          81.36          8.321
  0.002799              -50.67          1.275           2.75          69.19         0.7222          7.615         -38.78          3.218         -110.5          81.35          8.338
  0.004198              -50.66           1.28          2.763          69.18         0.7213          7.614         -38.77          3.232         -110.5          81.34          8.357
  0.005598              -50.65          1.287          2.778          69.18         0.7203          7.613         -38.76          3.247         -110.5          81.33          8.377
  0.006997              -50.65          1.293          2.793          69.18         0.7192          7.612         -38.76          3.263         -110.4          81.32          8.398
  0.008396              -50.64            1.3          2.809          69.18          0.718          7.611         -38.75           3.28         -110.4          81.32           8.42
  0.009796              -50.63          1.308          2.826          69.17         0.7168           7.61         -38.74          3.298         -110.4          81.31          8.444
    0.0112              -50.62          1.316          2.844          69.17         0.7155          7.608         -38.73          3.317         -110.4           81.3           8.47
   0.01259              -50.61          1.324          2.864          69.16         0.7141          7.607         -38.73          3.338         -110.4          81.28          8.498
   0.01399               -50.6          1.333          2.885          69.16         0.7126          7.605         -38.72          3.361         -110.4          81.27          8.528
   0.01539              -50.59          1.343          2.908          69.15          0.711          7.604         -38.71          3.385         -110.4          81.26           8.56
   0.01679              -50.58          1.354          2.933          69.15         0.7093          7.602         -38.69          3.411         -110.4          81.25          8.594
   0.01819              -50.57          1.366           2.96          69.14         0.7074            7.6         -38.68          3.439         -110.4          81.23          8.632
   0.01959              -50.55          1.378          2.988          69.14         0.7054          7.598         -38.67          3.469         -110.4          81.21          8.672
   0.02099              -50.54          1.392           3.02          69.13         0.7031          7.596         -38.66          3.502         -110.4           81.2          8.716
   0.02239              -50.52          1.407          3.054          69.13         0.7007          7.593         -38.64          3.538         -110.4          81.18          8.763
   0.02379              -50.51          1.423          3.091          69.12         0.6981          7.591         -38.62          3.577         -110.4          81.16          8.815
   0.02519              -50.49           1.44          3.131          69.11         0.6953          7.588          -38.6          3.619         -110.4          81.13          8.872
   0.02659              -50.47           1.46          3.175           69.1         0.6921          7.585         -38.58          3.666         -110.4          81.11          8.934
   0.02799              -50.44          1.481          3.224          69.09         0.6887          7.581         -38.56          3.717         -110.3          81.08          9.002
   0.02939              -50.42          1.504          3.277          69.08         0.6849          7.577         -38.54          3.773         -110.3          81.05          9.076
   0.03079              -50.39           1.53          3.336          69.07         0.6808          7.573         -38.51          3.836         -110.3          81.02          9.159
   0.03219              -50.36          1.558          3.402          69.05         0.6761          7.569         -38.48          3.905         -110.3          80.98          9.251
   0.03359              -50.33           1.59          3.474          69.04          0.671          7.563         -38.45          3.981         -110.3          80.94          9.353
   0.03498              -50.29          1.625          3.555          69.02         0.6653          7.558         -38.41          4.067         -110.3          80.89          9.466
   0.03638              -50.24          1.665          3.646           69.0         0.6588          7.551         -38.37          4.163         -110.2          80.84          9.594
   0.03778               -50.2          1.709          3.749          68.98         0.6516          7.544         -38.33           4.27         -110.2          80.78          9.737
   0.03918              -50.14          1.759          3.864          68.96         0.6435          7.536         -38.27          4.392         -110.2          80.72          9.899
   0.04058              -50.08          1.816          3.995          68.93         0.6342          7.526         -38.22           4.53         -110.2          80.64          10.08
   0.04198              -50.01          1.882          4.145           68.9         0.6236          7.516         -38.15          4.688         -110.1          80.56          10.29
   0.04338              -49.93          1.956          4.317          68.87         0.6115          7.503         -38.07          4.869         -110.1          80.46          10.53
   0.04478              -49.84          2.043          4.515          68.83         0.5974          7.489         -37.98          5.078         -110.0          80.35          10.81
   0.04618              -49.73          2.143          4.746          68.78         0.5811          7.473         -37.88          5.321         -110.0          80.22          11.13
   0.04758               -49.6           2.26          5.015          68.72         0.5621          7.454         -37.76          5.606         -109.9          80.07          11.51
   0.04898              -49.45          2.399          5.333          68.66         0.5396          7.431         -37.61          5.941         -109.8          79.89          11.96
   0.05038              -49.27          2.563          5.711          68.58         0.5129          7.404         -37.44          6.339         -109.7          79.67          12.49
   0.05178              -49.06           2.76          6.164          68.49         0.4809          7.372         -37.24          6.816         -109.6          79.42          13.12
   0.05318               -48.8          2.999          6.712          68.38         0.4422          7.333         -36.99          7.394         -109.5          79.11          13.89
   0.05458              -48.49           3.29          7.381          68.24         0.3949          7.285         -36.69          8.099         -109.3          78.73          14.82
   0.05598               -48.1          3.649          8.208          68.07         0.3365          7.226         -36.32           8.97         -109.1          78.26          15.98
   0.05737              -47.62          4.098          9.238          67.86         0.2637          7.153         -35.85          10.06         -108.9          77.68          17.42
   0.05877              -47.01          4.662          10.54           67.6          0.172          7.061         -35.27          11.42         -108.6          76.95          19.24
   0.06017              -46.23           5.38          12.19          67.26        0.05538          6.943         -34.52          13.16         -108.2          76.01          21.55
   0.06157              -45.24          6.299           14.3          66.83       -0.09386          6.793         -33.57          15.39         -107.7          74.82          24.51
   0.06297              -43.97          7.478          17.01          66.28        -0.2854            6.6         -32.35          18.24         -107.0          73.29          28.31
   0.06437              -42.34          8.984          20.47          65.57          -0.53          6.353         -30.79          21.89         -106.2          71.33          33.15
   0.06577               -40.3          10.88          24.82          64.68        -0.8376          6.044         -28.83          26.48         -105.1          68.87          39.25
   0.06717               -37.8          13.19          30.12           63.6         -1.212          5.666         -26.44          32.07         -103.8          65.87          46.68
   0.06857              -34.92          15.86          36.27          62.35         -1.647          5.228         -23.67          38.55         -102.3           62.4          55.29
   0.06997              -31.79          18.76          42.93          60.99         -2.117          4.754         -20.67          45.56         -100.7          58.64          64.61
   0.07137              -28.66          21.65          49.58          59.63         -2.588           4.28         -17.67          52.58         -99.12          54.87          73.93
   0.07277              -25.77          24.33          55.73          58.38         -3.022          3.842          -14.9          59.06         -97.63           51.4          82.54
   0.07417              -23.28          26.64          61.04           57.3         -3.397          3.465         -12.51          64.65         -96.34           48.4          89.97
